<svg width="302" height="180" viewBox="0 0 302 180" fill="none" xmlns="http://www.w3.org/2000/svg">
<path d="M85.4 65.4C85.4 69.1 85.8 72.1 86.5 74.3C87.3 76.5 88.3 78.9 89.7 81.5C90.2 82.3 90.4 83.1 90.4 83.8C90.4 84.8 89.8 85.8 88.5 86.8L82.2 91C81.3 91.6 80.4 91.9 79.6 91.9C78.6 91.9 77.6 91.4 76.6 90.5C75.2 89 74 87.4 73 85.8C72 84.1 71 82.2 69.9 79.9C62.1 89.1 52.3 93.7 40.5 93.7C32.1 93.7 25.4 91.3 20.5 86.5C15.6 81.7 13.1 75.3 13.1 67.3C13.1 58.8 16.1 51.9 22.2 46.7C28.3 41.5 36.4 38.9 46.7 38.9C50.1 38.9 53.6 39.2 57.3 39.7C61 40.2 64.8 41 68.8 41.9V34.6C68.8 27 67.2 21.7 64.1 18.6C60.9 15.5 55.5 14 47.8 14C44.3 14 40.7 14.4 37 15.3C33.3 16.2 29.7 17.3 26.2 18.7C24.6 19.4 23.4 19.8 22.7 20C22 20.2 21.5 20.3 21.1 20.3C19.7 20.3 19 19.3 19 17.2V12.3C19 10.7 19.2 9.50001 19.7 8.80001C20.2 8.10001 21.1 7.40001 22.5 6.70001C26 4.90001 30.2 3.40001 35.1 2.20001C40 0.900006 45.2 0.300006 50.7 0.300006C62.6 0.300006 71.3 3.00001 76.9 8.40001C82.4 13.8 85.2 22 85.2 33V65.4H85.4ZM44.8 80.6C48.1 80.6 51.5 80 55.1 78.8C58.7 77.6 61.9 75.4 64.6 72.4C66.2 70.5 67.4 68.4 68 66C68.6 63.6 69 60.7 69 57.3V53.1C66.1 52.4 63 51.8 59.8 51.4C56.6 51 53.5 50.8 50.4 50.8C43.7 50.8 38.8 52.1 35.5 54.8C32.2 57.5 30.6 61.3 30.6 66.3C30.6 71 31.8 74.5 34.3 76.9C36.7 79.4 40.2 80.6 44.8 80.6ZM125.1 91.4C123.3 91.4 122.1 91.1 121.3 90.4C120.5 89.8 119.8 88.4 119.2 86.5L95.7 9.20001C95.1 7.20001 94.8 5.90001 94.8 5.20001C94.8 3.60001 95.6 2.70001 97.2 2.70001H107C108.9 2.70001 110.2 3.00001 110.9 3.70001C111.7 4.30001 112.3 5.70001 112.9 7.60001L129.7 73.8L145.3 7.60001C145.8 5.60001 146.4 4.30001 147.2 3.70001C148 3.10001 149.4 2.70001 151.2 2.70001H159.2C161.1 2.70001 162.4 3.00001 163.2 3.70001C164 4.30001 164.7 5.70001 165.1 7.60001L180.9 74.6L198.2 7.60001C198.8 5.60001 199.5 4.30001 200.2 3.70001C201 3.10001 202.3 2.70001 204.1 2.70001H213.4C215 2.70001 215.9 3.50001 215.9 5.20001C215.9 5.70001 215.8 6.20001 215.7 6.80001C215.6 7.40001 215.4 8.20001 215 9.30001L190.9 86.6C190.3 88.6 189.6 89.9 188.8 90.5C188 91.1 186.7 91.5 185 91.5H176.4C174.5 91.5 173.2 91.2 172.4 90.5C171.6 89.8 170.9 88.5 170.5 86.5L155 22L139.6 86.4C139.1 88.4 138.5 89.7 137.7 90.4C136.9 91.1 135.5 91.4 133.7 91.4H125.1ZM253.6 94.1C248.4 94.1 243.2 93.5 238.2 92.3C233.2 91.1 229.3 89.8 226.7 88.3C225.1 87.4 224 86.4 223.6 85.5C223.2 84.6 223 83.6 223 82.7V77.6C223 75.5 223.8 74.5 225.3 74.5C225.9 74.5 226.5 74.6 227.1 74.8C227.7 75 228.6 75.4 229.6 75.8C233 77.3 236.7 78.5 240.6 79.3C244.6 80.1 248.5 80.5 252.5 80.5C258.8 80.5 263.7 79.4 267.1 77.2C270.5 75 272.3 71.8 272.3 67.7C272.3 64.9 271.4 62.6 269.6 60.7C267.8 58.8 264.4 57.1 259.5 55.5L245 51C237.7 48.7 232.3 45.3 229 40.8C225.7 36.4 224 31.5 224 26.3C224 22.1 224.9 18.4 226.7 15.2C228.5 12 230.9 9.20001 233.9 7.00001C236.9 4.70001 240.3 3.00001 244.3 1.80001C248.3 0.600006 252.5 0.100006 256.9 0.100006C259.1 0.100006 261.4 0.200006 263.6 0.500006C265.9 0.800006 268 1.20001 270.1 1.60001C272.1 2.10001 274 2.60001 275.8 3.20001C277.6 3.80001 279 4.40001 280 5.00001C281.4 5.80001 282.4 6.60001 283 7.50001C283.6 8.30001 283.9 9.40001 283.9 10.8V15.5C283.9 17.6 283.1 18.7 281.6 18.7C280.8 18.7 279.5 18.3 277.8 17.5C272.1 14.9 265.7 13.6 258.6 13.6C252.9 13.6 248.4 14.5 245.3 16.4C242.2 18.3 240.6 21.2 240.6 25.3C240.6 28.1 241.6 30.5 243.6 32.4C245.6 34.3 249.3 36.2 254.6 37.9L268.8 42.4C276 44.7 281.2 47.9 284.3 52C287.4 56.1 288.9 60.8 288.9 66C288.9 70.3 288 74.2 286.3 77.6C284.5 81 282.1 84 279 86.4C275.9 88.9 272.2 90.7 267.9 92C263.4 93.4 258.7 94.1 253.6 94.1Z" fill="#252F3E"/>
<path fill-rule="evenodd" clip-rule="evenodd" d="M272.5 142.7C239.6 167 191.8 179.9 150.7 179.9C93.1 179.9 41.2 158.6 1.99999 123.2C-1.10001 120.4 1.69999 116.6 5.39999 118.8C47.8 143.4 100.1 158.3 154.2 158.3C190.7 158.3 230.8 150.7 267.7 135.1C273.2 132.6 277.9 138.7 272.5 142.7Z" fill="#FF9900"/>
<path fill-rule="evenodd" clip-rule="evenodd" d="M286.2 127.1C282 121.7 258.4 124.5 247.7 125.8C244.5 126.2 244 123.4 246.9 121.3C265.7 108.1 296.6 111.9 300.2 116.3C303.8 120.8 299.2 151.7 281.6 166.5C278.9 168.8 276.3 167.6 277.5 164.6C281.5 154.7 290.4 132.4 286.2 127.1Z" fill="#FF9900"/>
</svg>
