<svg width="217" height="156" viewBox="0 0 217 156" fill="none" xmlns="http://www.w3.org/2000/svg">
<path d="M214.4 59.4C213.8 58.9 208.4 54.8 196.8 54.8C193.8 54.8 190.7 55.1 187.7 55.6C185.5 40.3 172.8 32.9 172.3 32.5L169.2 30.7L167.2 33.6C164.7 37.5 162.8 41.9 161.7 46.4C159.6 55.1 160.9 63.3 165.3 70.3C160 73.3 151.4 74 149.6 74.1H7.60002C3.90002 74.1 0.900015 77.1 0.900015 80.8C0.700015 93.2 2.80001 105.6 7.10002 117.3C12 130.1 19.3 139.6 28.7 145.4C39.3 151.9 56.6 155.6 76.1 155.6C84.9 155.6 93.7 154.8 102.4 153.2C114.5 151 126.1 146.8 136.8 140.7C145.6 135.6 153.5 129.1 160.2 121.5C171.5 108.8 178.2 94.6 183.1 82C183.8 82 184.4 82 185.1 82C197.4 82 205 77.1 209.2 72.9C212 70.3 214.1 67.1 215.6 63.5L216.5 60.9L214.4 59.4Z" fill="#0091E2"/>
<path d="M20.8 70H39.8C40.7 70 41.5 69.3 41.5 68.3V51.3C41.5 50.4 40.8 49.6 39.8 49.6H20.8C19.9 49.6 19.1 50.3 19.1 51.3V68.3C19.2 69.3 19.9 70 20.8 70Z" fill="#0091E2"/>
<path d="M47 70H66C66.9 70 67.7 69.3 67.7 68.3V51.3C67.7 50.4 67 49.6 66 49.6H47C46.1 49.6 45.3 50.3 45.3 51.3V68.3C45.4 69.3 46.1 70 47 70Z" fill="#0091E2"/>
<path d="M73.7 70H92.7C93.6 70 94.4 69.3 94.4 68.3V51.3C94.4 50.4 93.7 49.6 92.7 49.6H73.7C72.8 49.6 72 50.3 72 51.3V68.3C72 69.3 72.7 70 73.7 70Z" fill="#0091E2"/>
<path d="M100 70H119C119.9 70 120.7 69.3 120.7 68.3V51.3C120.7 50.4 120 49.6 119 49.6H100C99.1 49.6 98.3 50.3 98.3 51.3V68.3C98.3 69.3 99.1 70 100 70Z" fill="#0091E2"/>
<path d="M47 45.7H66C66.9 45.7 67.7 44.9 67.7 44V27C67.7 26.1 67 25.3 66 25.3H47C46.1 25.3 45.3 26 45.3 27V44C45.4 44.9 46.1 45.7 47 45.7Z" fill="#0091E2"/>
<path d="M73.7 45.7H92.7C93.6 45.7 94.4 44.9 94.4 44V27C94.4 26.1 93.7 25.3 92.7 25.3H73.7C72.8 25.3 72 26 72 27V44C72 44.9 72.7 45.7 73.7 45.7Z" fill="#0091E2"/>
<path d="M100 45.7H119C119.9 45.7 120.7 44.9 120.7 44V27C120.7 26.1 119.9 25.3 119 25.3H100C99.1 25.3 98.3 26 98.3 27V44C98.3 44.9 99.1 45.7 100 45.7Z" fill="#0091E2"/>
<path d="M100 21.3H119C119.9 21.3 120.7 20.6 120.7 19.6V2.60001C120.7 1.70001 119.9 0.899994 119 0.899994H100C99.1 0.899994 98.3 1.60001 98.3 2.60001V19.6C98.3 20.5 99.1 21.3 100 21.3Z" fill="#0091E2"/>
<path d="M126.5 70H145.5C146.4 70 147.2 69.3 147.2 68.3V51.3C147.2 50.4 146.5 49.6 145.5 49.6H126.5C125.6 49.6 124.8 50.3 124.8 51.3V68.3C124.9 69.3 125.6 70 126.5 70Z" fill="#0091E2"/>
</svg>
