<svg width="40" height="50" viewBox="0 0 40 50" fill="none" xmlns="http://www.w3.org/2000/svg">
<path d="M14.7054 38.9564C14.6815 39.6006 14.1611 49.9812 13.4818 49.9891L28.9461 49.9966C28.189 49.9644 27.7553 39.4148 27.7558 38.42C27.7569 36.3661 27.7496 34.3121 27.7771 32.2586C27.8035 30.268 27.57 28.3674 26.0807 26.81C27.2172 26.5866 28.2965 26.4245 29.3499 26.158C32.4691 25.3684 35.1041 23.8374 36.525 20.8162C38.0755 17.5202 38.4907 14.0475 37.3516 10.5406C36.9779 9.39 36.1534 8.389 35.5628 7.30431C35.444 7.08617 35.349 6.77083 35.4128 6.54955C36.0112 4.47685 35.8529 2.44727 35.102 0.455629C35.0289 0.262356 34.691 0.0535494 34.4726 0.0493903C33.2246 0.0270667 32.0653 0.432287 30.9647 0.97094C30.0187 1.43439 29.1246 2.00266 28.1906 2.49149C27.9628 2.61092 27.6447 2.693 27.4065 2.63536C23.3034 1.63904 19.2076 1.63488 15.104 2.63171C14.8503 2.69351 14.4985 2.60523 14.2675 2.4634C12.5494 1.40884 10.8053 0.4266 8.77893 0.0909823C8.71763 0.0805419 8.65751 0.0650088 8.5957 0.0566905C7.58483 -0.0814952 7.5003 -0.0320951 7.19666 0.959566C6.61805 2.84782 6.52885 4.74134 7.11263 6.6509C7.16503 6.82176 7.10119 7.1028 6.98341 7.23997C4.65244 9.9553 4.24511 13.136 4.70018 16.5338C4.99076 18.7032 5.62287 20.7415 7.00521 22.4828C8.69949 24.6173 11.0164 25.6921 13.5954 26.2895C14.4911 26.4974 15.4044 26.6319 16.3903 26.8147C15.5035 27.757 15.0634 28.8317 14.8279 30.0105C14.7972 30.1622 14.5901 30.3284 14.4272 30.3969C11.5058 31.6266 8.90909 30.8115 7.2221 28.1487C6.36894 26.8028 5.25437 25.7908 3.64259 25.488C3.23221 25.4111 2.77756 25.4703 2.36141 25.555C1.9489 25.6387 1.90006 25.9519 2.16113 26.2568C2.3609 26.4906 2.58916 26.7208 2.85022 26.8771C4.24825 27.7135 5.14592 28.967 5.74166 30.4324C6.74736 32.9061 8.68651 33.984 11.21 34.1295C12.3542 34.1955 13.5114 34.0422 14.7236 33.9856C14.7236 35.6043 14.7672 37.2821 14.7054 38.9564Z" fill="white"/>
</svg>
