<svg width="100" height="100" viewBox="0 0 100 100" fill="none" xmlns="http://www.w3.org/2000/svg">
<path d="M0 0H100V100L0 0Z" fill="#191919"/>
<mask id="mask0" mask-type="alpha" maskUnits="userSpaceOnUse" x="0" y="0" width="100" height="100">
<path d="M0 0H100V100L0 0Z" fill="#1A1A1A"/>
</mask>
<g mask="url(#mask0)">
<path d="M46.322 46.7565C45.8209 47.2216 45.1446 47.1164 44.6288 46.6123L56.2337 58.2285C55.6894 57.636 55.7759 56.8981 56.5224 56.1524C58.0637 54.6127 59.5987 53.0667 61.1594 51.5473C62.6722 50.0742 63.9224 48.4734 63.9723 46.1872C64.9931 46.8729 65.925 47.5617 66.9158 48.1527C69.8499 49.9024 72.9764 50.7326 76.3091 49.5334C79.9453 48.2256 82.8615 45.9327 84.6365 42.4473C85.2189 41.3038 85.3506 39.934 85.7207 38.6771C85.795 38.4243 85.9602 38.1165 86.1741 37.9985C88.1779 36.8932 89.5812 35.2521 90.5112 33.1946C90.6013 32.9948 90.5042 32.5845 90.3433 32.4174C89.423 31.4636 88.2488 30.8972 87.0185 30.4749C85.9606 30.1122 84.8631 29.8671 83.7952 29.5324C83.5347 29.451 83.2342 29.2737 83.0986 29.0517C80.7653 25.2238 77.6933 22.1456 73.8647 19.8123C73.6278 19.6681 73.4299 19.3377 73.3629 19.058C72.8638 16.9771 72.291 14.9309 71.0214 13.1578C70.9832 13.104 70.9497 13.0472 70.9095 12.9946C70.2542 12.132 70.1537 12.1055 69.182 12.6213C67.3314 13.6031 65.8443 14.9563 64.8504 16.8267C64.7616 16.9942 64.5029 17.1571 64.3116 17.1715C60.525 17.4579 57.8337 19.5376 55.627 22.4276C54.2181 24.2728 53.1639 26.2762 52.8959 28.6199C52.567 31.4929 53.5004 34.0385 54.9888 36.4229C55.5053 37.2513 56.0901 38.0379 56.6932 38.9152C55.3207 38.9561 54.1842 39.4318 53.1233 40.139C52.9865 40.2297 52.7064 40.1989 52.5327 40.128C49.417 38.8569 48.0787 36.2959 48.8092 33.0322C49.1782 31.3822 49.1003 29.7865 48.1173 28.3492C47.8668 27.9835 47.4811 27.6865 47.1051 27.4376C46.7326 27.1906 46.4611 27.3889 46.4284 27.8136C46.4031 28.1389 46.4018 28.4829 46.4805 28.7962C46.9029 30.4731 46.6368 32.0871 45.9849 33.6335C44.8848 36.2438 45.5323 38.5082 47.3178 40.512C48.1273 41.4205 49.1111 42.1744 50.0637 43.042C48.8497 44.256 47.624 45.5471 46.322 46.7565Z" fill="white"/>
</g>
</svg>
