<svg width="14" height="14" viewBox="0 0 14 14" fill="none" xmlns="http://www.w3.org/2000/svg">
<path d="M12.5 0H1.5C1.10218 0 0.720644 0.158035 0.43934 0.43934C0.158035 0.720644 0 1.10218 0 1.5V8.5C0 8.89782 0.158035 9.27936 0.43934 9.56066C0.720644 9.84196 1.10218 10 1.5 10H2.41L2 12.42C1.98713 12.5188 2.00405 12.6191 2.0486 12.7082C2.09314 12.7973 2.16327 12.871 2.25 12.92C2.32472 12.9685 2.41103 12.9961 2.5 13C2.61917 13 2.73443 12.9575 2.825 12.88L6.185 10H12.5C12.8978 10 13.2794 9.84196 13.5607 9.56066C13.842 9.27936 14 8.89782 14 8.5V1.5C14 1.10218 13.842 0.720644 13.5607 0.43934C13.2794 0.158035 12.8978 0 12.5 0ZM13 8.5C13 8.63261 12.9473 8.75979 12.8536 8.85355C12.7598 8.94732 12.6326 9 12.5 9H6C5.97673 8.99766 5.95327 8.99766 5.93 9C5.89687 8.99484 5.86313 8.99484 5.83 9C5.79592 9.01161 5.76386 9.02848 5.735 9.05L5.675 9.085L3.22 11.225L3.5 9.58V9.54C3.50224 9.52676 3.50224 9.51324 3.5 9.5V9.445C3.50283 9.41173 3.50283 9.37827 3.5 9.345C3.4897 9.31533 3.4763 9.28684 3.46 9.26C3.44638 9.23038 3.42777 9.20333 3.405 9.18C3.3859 9.15591 3.36409 9.1341 3.34 9.115L3.26 9.065C3.23047 9.04821 3.19837 9.03638 3.165 9.03H3.04L3 9H1.5C1.36739 9 1.24021 8.94732 1.14645 8.85355C1.05268 8.75979 1 8.63261 1 8.5V1.5C1 1.36739 1.05268 1.24021 1.14645 1.14645C1.24021 1.05268 1.36739 1 1.5 1H12.5C12.6326 1 12.7598 1.05268 12.8536 1.14645C12.9473 1.24021 13 1.36739 13 1.5V8.5Z" fill="currentColor"/>
</svg>
