<svg width="14" height="14" viewBox="0 0 14 14" fill="none" xmlns="http://www.w3.org/2000/svg">
<path d="M12.6875 2H1.31251C0.588747 2 0 2.61678 0 3.37501V11.625C0 12.3832 0.588747 13 1.31251 13H12.6875C13.4113 13 14 12.3832 14 11.625V3.37501C14 2.61678 13.4113 2 12.6875 2ZM12.6875 2.91666C12.7469 2.91666 12.8035 2.92958 12.8552 2.95215L7 8.26851L1.14479 2.95215C1.19649 2.92961 1.25304 2.91666 1.31248 2.91666H12.6875ZM12.6875 12.0833H1.31251C1.07112 12.0833 0.874996 11.8779 0.874996 11.625V3.92061L6.71331 9.22142C6.79578 9.29616 6.89789 9.33332 7 9.33332C7.10211 9.33332 7.20422 9.29619 7.28669 9.22142L13.125 3.92061V11.625C13.125 11.8779 12.9289 12.0833 12.6875 12.0833Z" fill="#f36717"/>
</svg>
