<svg width="15" height="13" viewBox="0 0 15 13" xmlns="http://www.w3.org/2000/svg">
<path fill-rule="evenodd" clip-rule="evenodd" d="M12.4615 0.999983H2.53846C1.81962 0.999983 1 1.79162 1 2.99998V10.0667C1 11.275 1.85809 12 2.57693 12H12.5C13.2188 12 14 11.2083 14 9.99998V2.99998C14 1.79162 13.1804 0.999983 12.4615 0.999983ZM2.53846 0.0666504H12.4615C13.8635 0.0666504 15 1.37995 15 2.99998V10.0667C15 11.6867 13.8635 13 12.4615 13H2.53846C1.13651 13 0 11.6867 0 10.0667V2.99998C0 1.37995 1.13651 0.0666504 2.53846 0.0666504Z" fill="currentColor"/>
<path d="M9.7453 6.09352C9.82199 6.13195 9.88634 6.19034 9.93128 6.26226C9.97622 6.33418 10 6.41683 10 6.50112C10 6.58541 9.97622 6.66807 9.93128 6.73998C9.88634 6.8119 9.82199 6.87029 9.7453 6.90872L8.2823 7.64607L6.68118 8.44982C6.61 8.4854 6.5307 8.50256 6.45082 8.49966C6.37095 8.49677 6.29316 8.47392 6.22487 8.43328C6.15658 8.39265 6.10006 8.33559 6.0607 8.26753C6.02134 8.19948 6.00044 8.1227 6 8.04451V4.95773C6.00004 4.87935 6.02065 4.80229 6.05984 4.73392C6.09904 4.66555 6.15552 4.60817 6.22387 4.56727C6.29223 4.52637 6.37017 4.50332 6.45024 4.50031C6.53031 4.49731 6.60983 4.51447 6.68118 4.55013L9.7453 6.09352Z" fill="currentColor"/>
</svg>
