<svg height='100px' width='100px' fill="currentColor"
     xmlns="http://www.w3.org/2000/svg" viewBox="0 0 32 32" x="0px" y="0px">
    <title>box chat empty</title>
    <g>
        <path d="M27,3H5A3,3,0,0,0,2,6V20a3,3,0,0,0,3,3H6.82L6,27.84a1,1,0,0,0,.5,1A1,1,0,0,0,7,29a1,1,0,0,0,.65-.24L14.37,23H27a3,3,0,0,0,3-3V6A3,3,0,0,0,27,3Zm1,17a1,1,0,0,1-1,1H14a.7.7,0,0,0-.14,0,.65.65,0,0,0-.2,0,.69.69,0,0,0-.19.1l-.12.07L8.44,25.45,9,22.16s0-.05,0-.08A.24.24,0,0,0,9,22s0-.08,0-.11a1.18,1.18,0,0,0,0-.2.89.89,0,0,0-.08-.17.57.57,0,0,0-.11-.16.8.8,0,0,0-.13-.13l-.16-.1a.62.62,0,0,0-.19-.07l-.11,0H8.08L8,21H5a1,1,0,0,1-1-1V6A1,1,0,0,1,5,5H27a1,1,0,0,1,1,1Z"></path>
    </g>
</svg>
