<svg width="14" height="14" viewBox="0 0 14 14" fill="none" xmlns="http://www.w3.org/2000/svg">
<path d="M12.6875 1H1.31251C0.588747 1 0 1.61678 0 2.37501V10.625C0 11.3832 0.588747 12 1.31251 12H12.6875C13.4113 12 14 11.3832 14 10.625V2.37501C14 1.61678 13.4113 1 12.6875 1ZM12.6875 1.91666C12.7469 1.91666 12.8035 1.92958 12.8552 1.95215L7 7.26851L1.14479 1.95215C1.19649 1.92961 1.25304 1.91666 1.31248 1.91666H12.6875ZM12.6875 11.0833H1.31251C1.07112 11.0833 0.874996 10.8779 0.874996 10.625V2.92061L6.71331 8.22142C6.79578 8.29616 6.89789 8.33332 7 8.33332C7.10211 8.33332 7.20422 8.29619 7.28669 8.22142L13.125 2.92061V10.625C13.125 10.8779 12.9289 11.0833 12.6875 11.0833Z" fill="currentColor"/>
</svg>
