<svg width="149" height="31" viewBox="0 0 149 31" fill="none" xmlns="http://www.w3.org/2000/svg">
<g clip-path="url(#clip0)">
<path d="M54.8156 22.458C54.878 22.7727 55.0265 23.289 55.2245 23.289C55.4228 23.289 55.7531 22.7727 55.9273 22.458L64.4932 6.99727C64.5289 6.93269 64.6187 6.87972 64.6927 6.87972H69.2279C69.3019 6.87972 69.332 6.93189 69.2942 6.99556L57.9841 26.1452C57.9463 26.209 57.8678 26.2981 57.8093 26.3435C57.8093 26.3435 55.522 28.1224 54.3719 28.1224C53.5366 28.1224 51.9002 28.1626 51.4421 26.2609L46.8758 7.0106C46.8588 6.93864 46.9054 6.87972 46.9796 6.87972H51.5146C51.5886 6.87972 51.6611 6.93905 51.6758 7.0114L54.8156 22.458" fill="#1A1A1A"/>
<path d="M81.937 15.3606C82.8505 15.3606 83.0891 14.6889 83.1883 14.1335C83.4173 12.8258 82.9183 11.834 82.3333 11.3196C81.3355 10.4493 79.8404 10.368 78.5317 10.368C77.3006 10.368 75.3997 10.3277 73.8764 11.755C72.7339 12.8258 72.3096 15.2283 72.3096 15.2283C72.2967 15.301 72.3466 15.3606 72.4209 15.3606H81.937ZM73.2096 27.8843C71.0656 27.8843 68.5585 27.6884 67.2454 25.2308C66.2064 23.2486 66.598 20.3552 67.0885 17.5815C67.7807 13.6567 68.4907 10.7632 71.1443 8.7829C73.7985 6.80285 77.3741 6.80285 79.3582 6.80285C81.8216 6.80285 84.3419 6.91988 86.0707 8.14787C88.2608 9.69529 88.3159 12.3117 87.8469 14.9653C87.6559 16.0358 87.3201 17.2631 86.2913 18.1362C85.5429 18.7704 84.7211 18.9295 83.8884 18.9295H71.7901C71.7161 18.9295 71.648 18.9895 71.639 19.0628C71.639 19.0628 71.3747 21.1879 71.4226 21.8227C71.6198 24.0813 73.5223 24.3173 75.2317 24.3173H85.3825C85.4565 24.3173 85.5067 24.3769 85.494 24.4497L84.9116 27.7517C84.8989 27.8248 84.8278 27.8843 84.7537 27.8843H73.2096" fill="#1A1A1A"/>
<path d="M92.6303 0.274055C92.643 0.201475 92.7142 0.14181 92.7885 0.14181H97.1645C97.2385 0.14181 97.2885 0.201475 97.2761 0.274055L92.4222 27.7517C92.4096 27.8248 92.3381 27.8843 92.2641 27.8843H87.886C87.812 27.8843 87.7621 27.8248 87.7745 27.7517L92.6303 0.274055Z" fill="#1A1A1A"/>
<path d="M113.076 27.0954C112.031 27.8461 110.753 27.8843 109.639 27.8843H102.348C102.274 27.8843 102.153 27.8791 102.079 27.8721C102.079 27.8721 98.2239 27.5275 97.0114 26.3014C95.5311 24.7934 95.5019 22.696 95.9585 20.119L98.2738 7.01199C98.2865 6.93926 98.3577 6.87972 98.4317 6.87972H102.81C102.884 6.87972 102.934 6.93926 102.921 7.01199L100.775 19.154C100.762 19.2267 100.745 19.3465 100.737 19.4198C100.737 19.4198 100.44 22.1798 100.894 22.9704C101.525 24.1199 102.763 24.3173 104.43 24.3173H108.149C108.223 24.3173 108.344 24.3088 108.417 24.2983C108.417 24.2983 109.382 24.16 109.712 23.8819C110.178 23.4865 110.263 23.0126 110.333 22.6156L113.089 7.01199C113.102 6.93926 113.173 6.87972 113.248 6.87972H117.626C117.7 6.87972 117.75 6.93926 117.737 7.01199L114.712 24.1199C114.58 24.8739 114.301 26.2226 113.076 27.0954" fill="#1A1A1A"/>
<path d="M119.305 10.5281C119.407 9.93331 119.67 8.90015 120.319 8.14788C121.31 7.03782 122.767 6.87972 123.721 6.87972H142.53C142.605 6.87972 142.726 6.88417 142.8 6.88962C142.8 6.88962 146.471 7.1569 147.733 8.54399C148.72 9.69529 149.101 11.5969 148.731 13.6961L146.247 27.7517C146.234 27.8248 146.163 27.8843 146.089 27.8843H141.709C141.635 27.8843 141.585 27.8248 141.598 27.7517L143.933 14.5421C143.946 14.4693 143.964 14.3498 143.973 14.2763C143.973 14.2763 144.215 12.2712 143.608 11.4384C142.975 10.5281 141.796 10.4493 140.964 10.4493H136.768C136.694 10.4493 136.622 10.5088 136.61 10.5816L133.575 27.7517C133.562 27.8248 133.491 27.8843 133.417 27.8843H129.039C128.965 27.8843 128.915 27.8248 128.928 27.7517L131.964 10.5816C131.977 10.5088 131.927 10.4493 131.853 10.4493H125.331C125.257 10.4493 125.136 10.4615 125.064 10.4764C125.064 10.4764 124.246 10.6444 124.107 10.7632C124.011 10.8428 123.853 11.0798 123.714 11.8742L120.907 27.7517C120.894 27.8248 120.823 27.8843 120.749 27.8843H116.369C116.295 27.8843 116.245 27.8248 116.258 27.7517L119.305 10.5281Z" fill="#1A1A1A"/>
<path d="M40.594 7.01199C40.6067 6.93926 40.6778 6.87972 40.7519 6.87972H45.1302C45.2042 6.87972 45.2542 6.93926 45.2412 7.01199L41.575 27.7517C41.562 27.8248 41.4909 27.8843 41.4168 27.8843H37.0406C36.9663 27.8843 36.9163 27.8248 36.9293 27.7517L40.594 7.01199" fill="#1A1A1A"/>
<path d="M46.3031 2.71593C46.0507 4.14427 44.685 5.30103 43.2536 5.30103C41.8222 5.30103 40.8648 4.14427 41.1182 2.71593C41.37 1.28655 42.7354 0.129151 44.1671 0.129151C45.5995 0.129151 46.5552 1.28655 46.3031 2.71593Z" fill="#1A1A1A"/>
<path d="M16.0661 21.0068L16.0745 20.9828C16.9262 17.9887 17.6836 15.3249 18.3615 12.9403C18.9721 10.7933 19.5261 8.8507 20.0286 7.08273C20.4772 5.46487 19.1426 4.6128 17.2428 5.01651C16.1734 5.24443 15.1574 5.46123 14.1918 5.66797C12.6904 5.98538 11.0345 7.23819 10.3456 8.56516C8.79952 11.5182 6.99775 14.9598 4.87281 19.0173C4.81304 19.1325 4.75894 19.2461 4.70769 19.3595C3.67949 17.9236 3.39365 16.0413 3.86687 13.9403C4.77281 9.91573 8.55028 5.56739 12.9105 3.05273C13.0747 2.95845 13.2389 2.86702 13.4031 2.77817C13.0942 3.89088 14.0479 4.50225 15.9398 4.04275C18.0314 3.53134 20.2919 1.96739 21.1431 0.494105C23.3913 0.421267 25.5263 0.962644 26.9853 2.34992C29.0874 4.35219 29.3258 7.59435 27.5209 11.2307C25.4839 15.3249 21.2612 19.1381 16.0661 21.0068ZM12.033 3.28958C9.4158 4.80678 7.0864 6.76438 5.24065 8.87268C3.26061 11.1328 1.57873 13.8646 0.685524 16.7571C-0.414859 20.3295 -0.215774 23.8015 1.46609 26.4807C2.49489 28.1167 4.0705 29.4453 6.19412 30.2326C8.61064 31.1276 11.6514 31.2975 15.1409 30.4338C23.0694 28.4757 29.5393 22.5219 32.2344 15.8144C33.4083 12.8835 33.7007 10.0915 33.1737 7.68031C32.7112 5.57 31.6365 3.82502 30.05 2.53098C27.4852 0.445546 23.9793 -0.111588 20.6028 0.297543C17.7983 0.638487 14.8237 1.67346 12.033 3.28958Z" fill="#F36717"/>
</g>
<defs>
<clipPath id="clip0">
<rect width="149" height="31" fill="white"/>
</clipPath>
</defs>
</svg>