<svg width="300" height="300" viewBox="0 0 300 300" fill="none" xmlns="http://www.w3.org/2000/svg">
<path d="M21.321 149.996C21.321 200.929 50.9202 244.944 93.8414 265.803L32.4614 97.6291C25.3218 113.632 21.321 131.342 21.321 149.996V149.996Z" fill="#21759B"/>
<path d="M236.862 143.503C236.862 127.6 231.15 116.587 226.251 108.015C219.728 97.4161 213.614 88.4401 213.614 77.8408C213.614 66.0124 222.585 55.0018 235.222 55.0018C235.792 55.0018 236.333 55.0728 236.889 55.1046C213.996 34.1313 183.496 21.3259 149.996 21.3259C105.043 21.3259 65.4933 44.3902 42.4854 79.3246C45.5043 79.4152 48.3494 79.4788 50.766 79.4788C64.225 79.4788 85.0588 77.8457 85.0588 77.8457C91.9953 77.4368 92.813 87.6248 85.8839 88.445C85.8839 88.445 78.9132 89.2652 71.1566 89.6717L118.015 229.049L146.174 144.595L126.127 89.6668C119.197 89.2603 112.633 88.4401 112.633 88.4401C105.699 88.0337 106.512 77.4319 113.446 77.8408C113.446 77.8408 134.696 79.4739 147.34 79.4739C160.796 79.4739 181.633 77.8408 181.633 77.8408C188.574 77.4319 189.389 87.6199 182.458 88.4401C182.458 88.4401 175.472 89.2603 167.73 89.6668L214.231 227.989L227.066 185.1C232.629 167.302 236.862 154.519 236.862 143.503V143.503Z" fill="#21759B"/>
<path d="M152.254 161.252L113.647 273.437C125.174 276.826 137.365 278.679 149.996 278.679C164.981 278.679 179.351 276.089 192.726 271.385C192.381 270.834 192.068 270.249 191.811 269.612L152.254 161.252Z" fill="#21759B"/>
<path d="M262.904 88.2614C263.457 92.3601 263.77 96.7599 263.77 101.493C263.77 114.55 261.332 129.229 253.986 147.582L214.682 261.222C252.936 238.914 278.667 197.469 278.667 149.999C278.669 127.627 272.955 106.59 262.904 88.2614V88.2614Z" fill="#21759B"/>
<path d="M149.996 0.00491333C67.2905 0.00491333 0 67.2905 0 149.996C0 232.712 67.2905 299.995 149.996 299.995C232.7 299.995 300 232.712 300 149.996C299.998 67.2905 232.7 0.00491333 149.996 0.00491333ZM149.996 293.12C71.0831 293.12 6.87767 228.914 6.87767 149.996C6.87767 71.0831 71.0807 6.88258 149.996 6.88258C228.907 6.88258 293.108 71.0831 293.108 149.996C293.108 228.914 228.907 293.12 149.996 293.12Z" fill="#21759B"/>
</svg>
