<svg width="270" height="270" viewBox="0 0 270 270" fill="none" xmlns="http://www.w3.org/2000/svg">
<g clip-path="url(#clip0)">
<path d="M129.775 178.959L129.843 178.764C136.723 154.483 142.841 132.88 148.316 113.542C153.249 96.1308 157.724 80.377 161.782 66.0394C165.406 52.9191 154.626 46.0092 139.28 49.2831C130.642 51.1314 122.435 52.8896 114.635 54.5662C102.508 57.1403 89.132 67.3001 83.5673 78.0614C71.0788 102.01 56.5248 129.92 39.3605 162.825C38.8777 163.759 38.4407 164.68 38.0267 165.6C29.7213 153.955 27.4125 138.69 31.2349 121.652C38.5527 89.014 69.0655 53.7505 104.286 33.3575C105.612 32.593 106.938 31.8515 108.265 31.131C105.769 40.1546 113.473 45.1126 128.755 41.3862C145.65 37.2389 163.909 24.5558 170.785 12.608C188.945 12.0173 206.191 16.4077 217.976 27.658C234.956 43.8957 236.881 70.1885 222.302 99.678C205.848 132.88 171.739 163.804 129.775 178.959ZM97.1974 35.2783C76.0568 47.5823 57.2409 63.4577 42.3317 80.5553C26.3378 98.884 12.7523 121.038 5.53737 144.495C-3.35105 173.466 -1.74293 201.623 11.8425 223.35C20.1527 236.617 32.8798 247.392 50.0335 253.777C69.5531 261.035 94.115 262.413 122.302 255.408C186.345 239.529 238.606 191.246 260.376 136.85C269.858 113.082 272.22 90.4395 267.963 70.8856C264.227 53.7717 255.546 39.6205 242.731 29.1263C222.014 12.2142 193.695 7.69605 166.421 11.0139C143.767 13.7789 119.74 22.1722 97.1974 35.2783Z" fill="#F36717"/>
</g>
<defs>
<clipPath id="clip0">
<rect width="270" height="270" fill="white"/>
</clipPath>
</defs>
</svg>
